<mxfile host="app.diagrams.net" agent="Mozilla/5.0 (Macintosh; Intel Mac OS X 10_15_7) AppleWebKit/537.36 (KHTML, like Gecko) Chrome/128.0.0.0 Safari/537.36" version="24.7.16">
  <diagram name="Page-1" id="Y-eyhaMJL06vKG5s_Lm6">
    <mxGraphModel dx="1821" dy="655" grid="1" gridSize="10" guides="1" tooltips="1" connect="1" arrows="0" fold="1" page="1" pageScale="1" pageWidth="827" pageHeight="1169" math="0" shadow="0">
      <root>
        <mxCell id="0" />
        <mxCell id="1" parent="0" />
        <mxCell id="sMhIFT5cZXc93tM2-_A8-11" style="rounded=0;orthogonalLoop=1;jettySize=auto;html=1;exitX=1;exitY=0.5;exitDx=0;exitDy=0;entryX=0;entryY=0.5;entryDx=0;entryDy=0;curved=0;endArrow=none;endFill=0;" edge="1" parent="1" source="VTB37e6MTEbKFAxIW83M-1" target="sMhIFT5cZXc93tM2-_A8-9">
          <mxGeometry relative="1" as="geometry" />
        </mxCell>
        <mxCell id="VTB37e6MTEbKFAxIW83M-1" value="Doctors" style="rounded=0;whiteSpace=wrap;html=1;" parent="1" vertex="1">
          <mxGeometry x="350" y="420" width="80" height="30" as="geometry" />
        </mxCell>
        <mxCell id="sMhIFT5cZXc93tM2-_A8-7" style="edgeStyle=orthogonalEdgeStyle;rounded=0;orthogonalLoop=1;jettySize=auto;html=1;exitX=1;exitY=0.5;exitDx=0;exitDy=0;shape=link;entryX=0;entryY=0.5;entryDx=0;entryDy=0;" edge="1" parent="1" source="VTB37e6MTEbKFAxIW83M-3" target="sMhIFT5cZXc93tM2-_A8-6">
          <mxGeometry relative="1" as="geometry">
            <mxPoint x="193" y="435" as="targetPoint" />
          </mxGeometry>
        </mxCell>
        <mxCell id="VTB37e6MTEbKFAxIW83M-3" value="Departments" style="rounded=0;whiteSpace=wrap;html=1;" parent="1" vertex="1">
          <mxGeometry x="40" y="420" width="80" height="30" as="geometry" />
        </mxCell>
        <mxCell id="VTB37e6MTEbKFAxIW83M-4" value="Prescriptions" style="rounded=0;whiteSpace=wrap;html=1;" parent="1" vertex="1">
          <mxGeometry x="640" y="420" width="80" height="30" as="geometry" />
        </mxCell>
        <mxCell id="sMhIFT5cZXc93tM2-_A8-14" style="edgeStyle=orthogonalEdgeStyle;rounded=0;orthogonalLoop=1;jettySize=auto;html=1;exitX=0.5;exitY=1;exitDx=0;exitDy=0;endArrow=none;endFill=0;shape=link;" edge="1" parent="1" source="VTB37e6MTEbKFAxIW83M-5" target="sMhIFT5cZXc93tM2-_A8-1">
          <mxGeometry relative="1" as="geometry" />
        </mxCell>
        <mxCell id="VTB37e6MTEbKFAxIW83M-5" value="Equipments" style="rounded=0;whiteSpace=wrap;html=1;" parent="1" vertex="1">
          <mxGeometry x="40" y="140" width="80" height="30" as="geometry" />
        </mxCell>
        <mxCell id="VTB37e6MTEbKFAxIW83M-6" value="Medications" style="rounded=0;whiteSpace=wrap;html=1;" parent="1" vertex="1">
          <mxGeometry x="640" y="140" width="80" height="30" as="geometry" />
        </mxCell>
        <mxCell id="VTB37e6MTEbKFAxIW83M-8" value="" style="rounded=0;whiteSpace=wrap;html=1;" parent="1" vertex="1">
          <mxGeometry x="40" y="695" width="80" height="40" as="geometry" />
        </mxCell>
        <mxCell id="VTB37e6MTEbKFAxIW83M-9" value="Patients" style="rounded=0;whiteSpace=wrap;html=1;" parent="1" vertex="1">
          <mxGeometry x="640" y="700" width="80" height="30" as="geometry" />
        </mxCell>
        <mxCell id="VTB37e6MTEbKFAxIW83M-10" value="Rooms" style="rounded=0;whiteSpace=wrap;html=1;" parent="1" vertex="1">
          <mxGeometry x="47.5" y="702.5" width="65" height="25" as="geometry" />
        </mxCell>
        <mxCell id="VTB37e6MTEbKFAxIW83M-12" value="&lt;u&gt;equipment_id&lt;/u&gt;" style="ellipse;whiteSpace=wrap;html=1;" parent="1" vertex="1">
          <mxGeometry x="-32.5" y="70" width="80" height="40" as="geometry" />
        </mxCell>
        <mxCell id="VTB37e6MTEbKFAxIW83M-20" value="name" style="ellipse;whiteSpace=wrap;html=1;align=center;" parent="1" vertex="1">
          <mxGeometry x="100" y="70" width="80" height="40" as="geometry" />
        </mxCell>
        <mxCell id="VTB37e6MTEbKFAxIW83M-21" value="type" style="ellipse;whiteSpace=wrap;html=1;align=center;" parent="1" vertex="1">
          <mxGeometry x="180" y="120" width="80" height="40" as="geometry" />
        </mxCell>
        <mxCell id="VTB37e6MTEbKFAxIW83M-22" value="description" style="ellipse;whiteSpace=wrap;html=1;align=center;" parent="1" vertex="1">
          <mxGeometry x="180" y="180" width="80" height="40" as="geometry" />
        </mxCell>
        <mxCell id="VTB37e6MTEbKFAxIW83M-24" value="&lt;u&gt;department_id&lt;/u&gt;" style="ellipse;whiteSpace=wrap;html=1;" parent="1" vertex="1">
          <mxGeometry x="-20" y="360" width="80" height="40" as="geometry" />
        </mxCell>
        <mxCell id="VTB37e6MTEbKFAxIW83M-25" value="name" style="ellipse;whiteSpace=wrap;html=1;align=center;" parent="1" vertex="1">
          <mxGeometry x="112.5" y="350" width="80" height="40" as="geometry" />
        </mxCell>
        <mxCell id="VTB37e6MTEbKFAxIW83M-26" value="description" style="ellipse;whiteSpace=wrap;html=1;align=center;" parent="1" vertex="1">
          <mxGeometry x="200" y="350" width="80" height="40" as="geometry" />
        </mxCell>
        <mxCell id="VTB37e6MTEbKFAxIW83M-27" value="location" style="ellipse;whiteSpace=wrap;html=1;align=center;" parent="1" vertex="1">
          <mxGeometry x="130" y="460" width="80" height="40" as="geometry" />
        </mxCell>
        <mxCell id="VTB37e6MTEbKFAxIW83M-28" value="&lt;u&gt;staff_id&lt;/u&gt;" style="ellipse;whiteSpace=wrap;html=1;" parent="1" vertex="1">
          <mxGeometry x="320" y="350" width="80" height="40" as="geometry" />
        </mxCell>
        <mxCell id="VTB37e6MTEbKFAxIW83M-29" value="name" style="ellipse;whiteSpace=wrap;html=1;align=center;" parent="1" vertex="1">
          <mxGeometry x="414" y="350" width="80" height="40" as="geometry" />
        </mxCell>
        <mxCell id="VTB37e6MTEbKFAxIW83M-30" value="specialty" style="ellipse;whiteSpace=wrap;html=1;align=center;" parent="1" vertex="1">
          <mxGeometry x="310" y="480" width="80" height="40" as="geometry" />
        </mxCell>
        <mxCell id="VTB37e6MTEbKFAxIW83M-32" value="years of experience" style="ellipse;whiteSpace=wrap;html=1;align=center;dashed=1;" parent="1" vertex="1">
          <mxGeometry x="420" y="480" width="80" height="40" as="geometry" />
        </mxCell>
        <mxCell id="VTB37e6MTEbKFAxIW83M-33" value="&lt;u&gt;medication_id&lt;/u&gt;" style="ellipse;whiteSpace=wrap;html=1;" parent="1" vertex="1">
          <mxGeometry x="570" y="70" width="80" height="40" as="geometry" />
        </mxCell>
        <mxCell id="VTB37e6MTEbKFAxIW83M-34" value="name" style="ellipse;whiteSpace=wrap;html=1;align=center;" parent="1" vertex="1">
          <mxGeometry x="670" y="70" width="80" height="40" as="geometry" />
        </mxCell>
        <mxCell id="VTB37e6MTEbKFAxIW83M-35" value="description" style="ellipse;whiteSpace=wrap;html=1;align=center;" parent="1" vertex="1">
          <mxGeometry x="770" y="90" width="80" height="40" as="geometry" />
        </mxCell>
        <mxCell id="VTB37e6MTEbKFAxIW83M-36" value="price" style="ellipse;whiteSpace=wrap;html=1;align=center;" parent="1" vertex="1">
          <mxGeometry x="770" y="135" width="80" height="40" as="geometry" />
        </mxCell>
        <mxCell id="VTB37e6MTEbKFAxIW83M-37" value="&lt;u&gt;prescription_id&lt;/u&gt;" style="ellipse;whiteSpace=wrap;html=1;" parent="1" vertex="1">
          <mxGeometry x="590" y="350" width="80" height="40" as="geometry" />
        </mxCell>
        <mxCell id="VTB37e6MTEbKFAxIW83M-38" value="date of prescription" style="ellipse;whiteSpace=wrap;html=1;align=center;" parent="1" vertex="1">
          <mxGeometry x="690" y="350" width="80" height="40" as="geometry" />
        </mxCell>
        <mxCell id="VTB37e6MTEbKFAxIW83M-39" value="&lt;u&gt;SSN&lt;/u&gt;" style="ellipse;whiteSpace=wrap;html=1;" parent="1" vertex="1">
          <mxGeometry x="590" y="630" width="80" height="40" as="geometry" />
        </mxCell>
        <mxCell id="VTB37e6MTEbKFAxIW83M-40" value="patient id" style="ellipse;whiteSpace=wrap;html=1;align=center;" parent="1" vertex="1">
          <mxGeometry x="760" y="410" width="80" height="40" as="geometry" />
        </mxCell>
        <mxCell id="VTB37e6MTEbKFAxIW83M-41" value="doctor id" style="ellipse;whiteSpace=wrap;html=1;align=center;" parent="1" vertex="1">
          <mxGeometry x="760" y="470" width="80" height="40" as="geometry" />
        </mxCell>
        <mxCell id="VTB37e6MTEbKFAxIW83M-42" value="medication id" style="ellipse;whiteSpace=wrap;html=1;align=center;" parent="1" vertex="1">
          <mxGeometry x="760" y="530" width="80" height="40" as="geometry" />
        </mxCell>
        <mxCell id="VTB37e6MTEbKFAxIW83M-44" value="name" style="ellipse;whiteSpace=wrap;html=1;align=center;" parent="1" vertex="1">
          <mxGeometry x="610" y="770" width="80" height="40" as="geometry" />
        </mxCell>
        <mxCell id="VTB37e6MTEbKFAxIW83M-45" value="first name" style="ellipse;whiteSpace=wrap;html=1;align=center;" parent="1" vertex="1">
          <mxGeometry x="570" y="830" width="80" height="40" as="geometry" />
        </mxCell>
        <mxCell id="VTB37e6MTEbKFAxIW83M-46" value="last name" style="ellipse;whiteSpace=wrap;html=1;align=center;" parent="1" vertex="1">
          <mxGeometry x="660" y="830" width="80" height="40" as="geometry" />
        </mxCell>
        <mxCell id="VTB37e6MTEbKFAxIW83M-47" value="address" style="ellipse;whiteSpace=wrap;html=1;align=center;" parent="1" vertex="1">
          <mxGeometry x="700" y="630" width="80" height="40" as="geometry" />
        </mxCell>
        <mxCell id="VTB37e6MTEbKFAxIW83M-48" value="age" style="ellipse;whiteSpace=wrap;html=1;align=center;dashed=1;" parent="1" vertex="1">
          <mxGeometry x="760" y="710" width="80" height="40" as="geometry" />
        </mxCell>
        <mxCell id="VTB37e6MTEbKFAxIW83M-49" value="date of birth" style="ellipse;whiteSpace=wrap;html=1;align=center;" parent="1" vertex="1">
          <mxGeometry x="760" y="770" width="80" height="40" as="geometry" />
        </mxCell>
        <mxCell id="VTB37e6MTEbKFAxIW83M-50" value="" style="ellipse;whiteSpace=wrap;html=1;align=center;perimeterSpacing=0;" parent="1" vertex="1">
          <mxGeometry x="770" y="657.5" width="80" height="40" as="geometry" />
        </mxCell>
        <mxCell id="VTB37e6MTEbKFAxIW83M-51" value="phone number" style="ellipse;whiteSpace=wrap;html=1;align=center;perimeterSpacing=0;" parent="1" vertex="1">
          <mxGeometry x="775" y="661.25" width="70" height="32.5" as="geometry" />
        </mxCell>
        <mxCell id="VTB37e6MTEbKFAxIW83M-52" value="location" style="ellipse;whiteSpace=wrap;html=1;align=center;" parent="1" vertex="1">
          <mxGeometry x="90" y="760" width="80" height="40" as="geometry" />
        </mxCell>
        <mxCell id="VTB37e6MTEbKFAxIW83M-53" value="room type" style="ellipse;whiteSpace=wrap;html=1;align=center;" parent="1" vertex="1">
          <mxGeometry x="192.5" y="760" width="80" height="40" as="geometry" />
        </mxCell>
        <mxCell id="VTB37e6MTEbKFAxIW83M-55" value="room_id" style="ellipse;whiteSpace=wrap;html=1;align=center;" parent="1" vertex="1">
          <mxGeometry y="760" width="80" height="40" as="geometry" />
        </mxCell>
        <mxCell id="VTB37e6MTEbKFAxIW83M-57" value="" style="endArrow=none;dashed=1;html=1;rounded=0;entryX=0.75;entryY=0.75;entryDx=0;entryDy=0;entryPerimeter=0;exitX=0.25;exitY=0.75;exitDx=0;exitDy=0;exitPerimeter=0;" parent="1" source="VTB37e6MTEbKFAxIW83M-55" target="VTB37e6MTEbKFAxIW83M-55" edge="1">
          <mxGeometry width="50" height="50" relative="1" as="geometry">
            <mxPoint x="40" y="860" as="sourcePoint" />
            <mxPoint x="90" y="860" as="targetPoint" />
          </mxGeometry>
        </mxCell>
        <mxCell id="sMhIFT5cZXc93tM2-_A8-13" style="edgeStyle=orthogonalEdgeStyle;rounded=0;orthogonalLoop=1;jettySize=auto;html=1;exitX=0.5;exitY=1;exitDx=0;exitDy=0;entryX=0.5;entryY=0;entryDx=0;entryDy=0;endArrow=none;endFill=0;" edge="1" parent="1" source="sMhIFT5cZXc93tM2-_A8-1" target="VTB37e6MTEbKFAxIW83M-3">
          <mxGeometry relative="1" as="geometry" />
        </mxCell>
        <mxCell id="sMhIFT5cZXc93tM2-_A8-1" value="belong_to" style="rhombus;whiteSpace=wrap;html=1;" vertex="1" parent="1">
          <mxGeometry x="40" y="260" width="80" height="50" as="geometry" />
        </mxCell>
        <mxCell id="sMhIFT5cZXc93tM2-_A8-8" style="edgeStyle=orthogonalEdgeStyle;rounded=0;orthogonalLoop=1;jettySize=auto;html=1;exitX=1;exitY=0.5;exitDx=0;exitDy=0;entryX=0;entryY=0.5;entryDx=0;entryDy=0;shape=link;" edge="1" parent="1" source="sMhIFT5cZXc93tM2-_A8-6" target="VTB37e6MTEbKFAxIW83M-1">
          <mxGeometry relative="1" as="geometry" />
        </mxCell>
        <mxCell id="sMhIFT5cZXc93tM2-_A8-6" value="work_in" style="rhombus;whiteSpace=wrap;html=1;" vertex="1" parent="1">
          <mxGeometry x="192.5" y="410" width="80" height="50" as="geometry" />
        </mxCell>
        <mxCell id="sMhIFT5cZXc93tM2-_A8-12" style="edgeStyle=orthogonalEdgeStyle;rounded=0;orthogonalLoop=1;jettySize=auto;html=1;exitX=1;exitY=0.5;exitDx=0;exitDy=0;entryX=0;entryY=0.5;entryDx=0;entryDy=0;endArrow=none;endFill=0;" edge="1" parent="1" source="sMhIFT5cZXc93tM2-_A8-9" target="VTB37e6MTEbKFAxIW83M-4">
          <mxGeometry relative="1" as="geometry" />
        </mxCell>
        <mxCell id="sMhIFT5cZXc93tM2-_A8-9" value="prescribe" style="rhombus;whiteSpace=wrap;html=1;" vertex="1" parent="1">
          <mxGeometry x="500" y="410" width="80" height="50" as="geometry" />
        </mxCell>
        <mxCell id="sMhIFT5cZXc93tM2-_A8-16" style="edgeStyle=orthogonalEdgeStyle;rounded=0;orthogonalLoop=1;jettySize=auto;html=1;exitX=0.5;exitY=0;exitDx=0;exitDy=0;entryX=0.5;entryY=1;entryDx=0;entryDy=0;strokeColor=default;align=center;verticalAlign=middle;fontFamily=Helvetica;fontSize=11;fontColor=default;labelBackgroundColor=default;endArrow=none;endFill=0;" edge="1" parent="1" source="sMhIFT5cZXc93tM2-_A8-15" target="VTB37e6MTEbKFAxIW83M-6">
          <mxGeometry relative="1" as="geometry" />
        </mxCell>
        <mxCell id="sMhIFT5cZXc93tM2-_A8-17" style="edgeStyle=orthogonalEdgeStyle;shape=link;rounded=0;orthogonalLoop=1;jettySize=auto;html=1;exitX=0.5;exitY=1;exitDx=0;exitDy=0;entryX=0.5;entryY=0;entryDx=0;entryDy=0;strokeColor=default;align=center;verticalAlign=middle;fontFamily=Helvetica;fontSize=11;fontColor=default;labelBackgroundColor=default;endArrow=classic;" edge="1" parent="1" source="sMhIFT5cZXc93tM2-_A8-15" target="VTB37e6MTEbKFAxIW83M-4">
          <mxGeometry relative="1" as="geometry" />
        </mxCell>
        <mxCell id="sMhIFT5cZXc93tM2-_A8-15" value="have" style="rhombus;whiteSpace=wrap;html=1;" vertex="1" parent="1">
          <mxGeometry x="640" y="280" width="80" height="50" as="geometry" />
        </mxCell>
        <mxCell id="sMhIFT5cZXc93tM2-_A8-19" style="edgeStyle=orthogonalEdgeStyle;shape=connector;rounded=0;orthogonalLoop=1;jettySize=auto;html=1;exitX=0.5;exitY=0;exitDx=0;exitDy=0;entryX=0.5;entryY=1;entryDx=0;entryDy=0;strokeColor=default;align=center;verticalAlign=middle;fontFamily=Helvetica;fontSize=11;fontColor=default;labelBackgroundColor=default;endArrow=none;endFill=0;" edge="1" parent="1" source="sMhIFT5cZXc93tM2-_A8-18" target="VTB37e6MTEbKFAxIW83M-4">
          <mxGeometry relative="1" as="geometry" />
        </mxCell>
        <mxCell id="sMhIFT5cZXc93tM2-_A8-20" style="edgeStyle=orthogonalEdgeStyle;shape=connector;rounded=0;orthogonalLoop=1;jettySize=auto;html=1;exitX=0.5;exitY=1;exitDx=0;exitDy=0;entryX=0.5;entryY=0;entryDx=0;entryDy=0;strokeColor=default;align=center;verticalAlign=middle;fontFamily=Helvetica;fontSize=11;fontColor=default;labelBackgroundColor=default;endArrow=none;endFill=0;" edge="1" parent="1" source="sMhIFT5cZXc93tM2-_A8-18" target="VTB37e6MTEbKFAxIW83M-9">
          <mxGeometry relative="1" as="geometry" />
        </mxCell>
        <mxCell id="sMhIFT5cZXc93tM2-_A8-18" value="prescribe" style="rhombus;whiteSpace=wrap;html=1;" vertex="1" parent="1">
          <mxGeometry x="640" y="535" width="80" height="50" as="geometry" />
        </mxCell>
        <mxCell id="sMhIFT5cZXc93tM2-_A8-23" style="edgeStyle=orthogonalEdgeStyle;shape=connector;rounded=0;orthogonalLoop=1;jettySize=auto;html=1;exitX=1;exitY=0.5;exitDx=0;exitDy=0;entryX=0;entryY=0.5;entryDx=0;entryDy=0;strokeColor=default;align=center;verticalAlign=middle;fontFamily=Helvetica;fontSize=11;fontColor=default;labelBackgroundColor=default;endArrow=none;endFill=0;" edge="1" parent="1" source="sMhIFT5cZXc93tM2-_A8-21" target="VTB37e6MTEbKFAxIW83M-9">
          <mxGeometry relative="1" as="geometry" />
        </mxCell>
        <mxCell id="sMhIFT5cZXc93tM2-_A8-24" style="edgeStyle=orthogonalEdgeStyle;shape=connector;rounded=0;orthogonalLoop=1;jettySize=auto;html=1;exitX=0;exitY=0.5;exitDx=0;exitDy=0;strokeColor=default;align=center;verticalAlign=middle;fontFamily=Helvetica;fontSize=11;fontColor=default;labelBackgroundColor=default;endArrow=none;endFill=0;entryX=1;entryY=0.5;entryDx=0;entryDy=0;" edge="1" parent="1" source="sMhIFT5cZXc93tM2-_A8-21" target="VTB37e6MTEbKFAxIW83M-8">
          <mxGeometry relative="1" as="geometry">
            <mxPoint x="130" y="715.4000000000001" as="targetPoint" />
          </mxGeometry>
        </mxCell>
        <mxCell id="sMhIFT5cZXc93tM2-_A8-21" value="assign" style="rhombus;whiteSpace=wrap;html=1;" vertex="1" parent="1">
          <mxGeometry x="350" y="690" width="80" height="50" as="geometry" />
        </mxCell>
        <mxCell id="sMhIFT5cZXc93tM2-_A8-27" style="edgeStyle=orthogonalEdgeStyle;shape=link;rounded=0;orthogonalLoop=1;jettySize=auto;html=1;exitX=0.5;exitY=0;exitDx=0;exitDy=0;strokeColor=default;align=center;verticalAlign=middle;fontFamily=Helvetica;fontSize=11;fontColor=default;labelBackgroundColor=default;endArrow=none;endFill=0;entryX=0.5;entryY=1;entryDx=0;entryDy=0;" edge="1" parent="1" source="sMhIFT5cZXc93tM2-_A8-26" target="VTB37e6MTEbKFAxIW83M-3">
          <mxGeometry relative="1" as="geometry">
            <mxPoint x="79.79999999999995" y="460" as="targetPoint" />
          </mxGeometry>
        </mxCell>
        <mxCell id="sMhIFT5cZXc93tM2-_A8-28" style="edgeStyle=orthogonalEdgeStyle;shape=link;rounded=0;orthogonalLoop=1;jettySize=auto;html=1;exitX=0.5;exitY=1;exitDx=0;exitDy=0;entryX=0.5;entryY=0;entryDx=0;entryDy=0;strokeColor=default;align=center;verticalAlign=middle;fontFamily=Helvetica;fontSize=11;fontColor=default;labelBackgroundColor=default;endArrow=none;endFill=0;" edge="1" parent="1" source="sMhIFT5cZXc93tM2-_A8-26" target="VTB37e6MTEbKFAxIW83M-8">
          <mxGeometry relative="1" as="geometry" />
        </mxCell>
        <mxCell id="sMhIFT5cZXc93tM2-_A8-26" value="" style="rhombus;whiteSpace=wrap;html=1;" vertex="1" parent="1">
          <mxGeometry x="40" y="535" width="80" height="50" as="geometry" />
        </mxCell>
        <mxCell id="sMhIFT5cZXc93tM2-_A8-29" value="belong_to" style="rhombus;whiteSpace=wrap;html=1;" vertex="1" parent="1">
          <mxGeometry x="46.25" y="540" width="67.5" height="40" as="geometry" />
        </mxCell>
      </root>
    </mxGraphModel>
  </diagram>
</mxfile>
